HIERARCHY
ROOT hip
{
	OFFSET 0.000000 0.000000 0.000000 
	CHANNELS 6 Xposition Yposition Zposition Xrotation Zrotation Yrotation
	JOINT abdomen
	{
		OFFSET 0.000000 3.402643 0.000000 
		CHANNELS 3 Xrotation Zrotation Yrotation
		JOINT chest
		{
			OFFSET 0.000000 8.438565 -0.680529 
			CHANNELS 3 Xrotation Zrotation Yrotation
			JOINT neck
			{
				OFFSET 0.000000 10.207942 -0.272212 
				CHANNELS 3 Xrotation Zrotation Yrotation
				JOINT head
				{
					OFFSET 0.000000 3.130431 0.000000 
					CHANNELS 3 Xrotation Zrotation Yrotation
					End Site
					{
						OFFSET 0.000000 3.130435 0.000000 
					}
				}
			}
			JOINT lCollar
			{
				OFFSET 3.470700 6.669187 -0.816635 
				CHANNELS 3 Yrotation Zrotation Xrotation
				JOINT lShldr
				{
					OFFSET 3.198488 0.000000 0.000000 
					CHANNELS 3 Zrotation Yrotation Xrotation
					JOINT lForeArm
					{
						OFFSET 10.139888 0.000000 0.000000 
						CHANNELS 3 Yrotation Zrotation Xrotation
						JOINT lHand
						{
							OFFSET 8.370511 0.000000 0.000000 
							CHANNELS 3 Zrotation Yrotation Xrotation
							End Site
							{
								OFFSET 4.083176 0.000000 0.000000 
							}
						}
					}
				}
			}
			JOINT rCollar
			{
				OFFSET -3.470700 6.669187 -0.816635 
				CHANNELS 3 Yrotation Zrotation Xrotation
				JOINT rShldr
				{
					OFFSET -3.198488 0.000000 0.000000 
					CHANNELS 3 Zrotation Yrotation Xrotation
					JOINT rForeArm
					{
						OFFSET -10.139888 0.000000 0.000000 
						CHANNELS 3 Yrotation Zrotation Xrotation
						JOINT rHand
						{
							OFFSET -8.370511 0.000000 0.000000 
							CHANNELS 3 Zrotation Yrotation Xrotation
							End Site
							{
								OFFSET -4.083176 0.000000 0.000000 
							}
						}
					}
				}
			}
		}
	}
	JOINT lThigh
	{
		OFFSET 5.308129 -1.633274 1.361059 
		CHANNELS 3 Xrotation Zrotation Yrotation
		JOINT lShin
		{
			OFFSET -2.041588 -20.007561 0.000000 
			CHANNELS 3 Xrotation Zrotation Yrotation
			JOINT lFoot
			{
				OFFSET 0.000000 -19.190928 -1.224953 
				CHANNELS 3 Xrotation Yrotation Zrotation
				End Site
				{
					OFFSET 0.000000 -2.449906 4.627600 
				}
			}
		}
	}
	JOINT rThigh
	{
		OFFSET -5.308129 -1.633274 1.361059 
		CHANNELS 3 Xrotation Zrotation Yrotation
		JOINT rShin
		{
			OFFSET 2.041588 -20.007561 0.000000 
			CHANNELS 3 Xrotation Zrotation Yrotation
			JOINT rFoot
			{
				OFFSET 0.000000 -19.190928 -1.224953 
				CHANNELS 3 Xrotation Yrotation Zrotation
				End Site
				{
					OFFSET 0.000000 -2.449906 4.627600 
				}
			}
		}
	}
}
MOTION
Frames: 6
Frame Time: 0.016667
-29.362740 88.024414 29.072052 3.235470 2.486270 -97.564301 -21.503599 -0.155990 0.418254 16.062799 1.567430 0.130777 31.127563 -1.196931 12.022012 16.030600 20.524500 6.706280 2.000000 -2.000000 0.000000 103.338997 174.380997 1.637010 75.596199 -0.248858 0.132468 0.060780 -0.054558 -153.132996 -2.000000 2.000000 0.000000 77.328903 15.603200 -158.029999 -70.928299 0.259522 0.129218 -0.079485 0.095903 -169.391998 -11.359075 -4.416339 11.197244 26.163952 2.576290 2.082861 -16.093939 19.455547 7.887961 -12.084800 5.430679 19.230156 27.511208 -2.757184 -2.111079 -9.346759 -12.329506 0.173177 
-29.605839 88.121590 28.896917 3.039030 2.038150 -98.807503 -21.669901 -0.063116 0.193169 15.994100 1.684100 0.031702 32.126312 -0.641624 13.766703 15.578100 21.528200 7.220870 2.000000 -2.000000 0.000000 102.976997 172.352997 0.040407 75.010300 -0.250211 0.132114 0.061034 -0.055424 -153.455002 -2.000000 2.000000 0.000000 78.626297 16.126499 -156.201996 -69.512299 0.262701 0.128075 -0.089031 0.095556 -169.246002 -10.658930 -4.670705 10.868203 26.354673 2.627237 2.070943 -16.487747 20.558617 8.343853 -11.795481 5.352286 19.534229 28.077091 -2.790635 -2.110286 -8.812057 -11.257062 0.602284 
-29.832426 88.239655 28.779974 2.950570 1.735980 -98.904404 -21.756901 -0.076326 -0.537217 16.052601 1.732920 -0.321969 32.827950 -0.794987 15.434677 15.526000 22.899200 7.864670 2.000000 -2.000000 0.000000 102.566002 170.225998 -0.775159 74.463402 -0.251470 0.131770 0.061104 -0.055660 -153.542999 -2.000000 2.000000 0.000000 79.737999 16.493700 -154.414001 -68.506401 0.264942 0.127215 -0.087731 0.093467 -168.367004 -10.222272 -4.947749 9.544334 26.573236 2.694913 2.062992 -16.092268 21.698324 8.458226 -11.531348 5.081853 18.997887 28.319530 -2.825642 -2.124261 -8.027395 -9.379783 1.134493 
-30.087095 88.335030 28.677183 2.959940 1.453140 -99.446098 -21.782600 -0.133769 -1.218770 16.219000 1.616450 -0.649889 33.506748 -1.307428 17.141766 15.656400 24.209000 8.623400 2.000000 -2.000000 0.000000 102.349998 167.785995 -1.025020 74.053299 -0.252412 0.131505 0.061574 -0.047438 -154.119003 -2.000000 2.000000 0.000000 81.269501 17.007299 -152.531006 -67.481003 0.267211 0.126298 -0.084489 0.078153 -166.072006 -9.821631 -5.067666 8.520776 26.889227 2.769396 2.054829 -16.203224 22.511768 8.673823 -11.190797 4.914089 18.931719 28.358370 -2.825694 -2.113941 -7.531835 -8.022312 1.443949 
-30.320986 88.370300 28.536425 2.978870 0.887471 -100.764000 -21.613001 -0.152538 -1.630480 16.355801 1.568040 -0.847536 34.225605 -1.827262 18.733541 15.867400 25.261700 9.377550 2.000000 -2.000000 0.000000 102.105003 165.393005 -0.971978 73.916496 -0.252725 0.131415 0.062611 -0.050666 -155.330002 -2.000000 2.000000 0.000000 82.614998 17.832600 -150.233994 -66.641197 0.269056 0.125517 -0.082575 0.074618 -164.636993 -9.036242 -5.111040 8.132907 27.323355 2.847780 2.065777 -16.850170 23.043692 8.994619 -10.731633 4.968001 19.345917 28.756289 -2.877053 -2.130280 -7.531365 -6.830781 1.754072 
-30.567345 88.405464 28.385105 2.754000 0.477963 -102.349998 -21.570200 -0.150898 -1.987800 16.511700 1.792400 -1.025100 34.768574 -2.612064 20.284370 16.051800 26.094200 10.144900 2.000000 -2.000000 0.000000 101.751999 163.057999 -0.645307 73.584503 -0.253486 0.131193 0.064237 -0.055312 -157.087997 -2.000000 2.000000 0.000000 83.794296 18.570200 -148.026001 -65.615799 0.271293 0.124527 -0.081932 0.073381 -164.138000 -8.293890 -5.411980 8.217160 27.345078 2.907359 2.030571 -17.194120 23.879585 9.345836 -10.437734 4.808359 19.730030 29.155626 -2.917255 -2.153883 -7.442043 -5.656353 2.070184 
